<?xml version="1.0" encoding="UTF-8"?>
<svg id="Layer_1" data-name="Layer 1" xmlns="http://www.w3.org/2000/svg" viewBox="0 0 200 200">
  <defs>
    <style>
      .cls-1 {
        fill: #fff;
      }
    </style>
  </defs>
  <path d="M103.43,0c.71.22,1.55.06,2.29.1,28.2,1.28,55.34,15.64,72.79,37.55,12.85,16.13,21.39,37.82,21.64,58.62,0,.17-.07.45.1.56-.04,2.1.06,4.2,0,6.3-1.38,51.05-42.06,93.11-92.91,96.63C50.59,203.68,2.33,159.87.41,103.18-1.44,48.07,42.16,1.62,97.23,0h6.2ZM163.41,164.13c33.97-33.48,36.17-87.46,4.89-123.59C137.1,4.51,82.89-.98,45.07,28.25,4.06,59.95-2.05,120.08,32.26,159.22c34.19,39,94.14,41.39,131.15,4.91Z"/>
  <path class="cls-1" d="M163.41,164.13c-37.01,36.48-96.96,34.09-131.15-4.91C-2.05,120.08,4.06,59.95,45.07,28.25,82.89-.98,137.1,4.51,168.3,40.54c31.28,36.13,29.07,90.1-4.89,123.59ZM17.78,104.65h107.08l.41-32.92-7.87,11.79h-2.9l10.87-16.51v-3.4l-17.32,19.91h-3.2l20.62-23.93v-3.4l-27.48,27.33h-3.4c.09-.34.5-.67.76-.92,10.22-9.78,19.95-20.1,30.11-29.93l.12-.49.09-14.23c.15-.84.58-1.01,1.3-.58s2.71,1.88,3.33,2.47c.17.17.38.32.44.58.18.82,0,2.59.02,3.54.05,2.05.13,4.14.21,6.19.02.54-.12,1.98.09,2.35l51.47,51.25c.23.04.14-.1.15-.25,1.06-14.51-3.31-31.29-10.35-43.91C148.78,17.34,93.84,3.98,53.62,31.52c-23.07,15.79-37.63,43.69-35.94,71.97.02.38.17.76.11,1.16ZM131.06,56.09v3.4l39.06,45.16h9.7l-48.77-48.57ZM166.72,104.65l-35.56-41.25v3.4l25.04,37.85h10.52ZM153.11,104.65l-21.84-33.12.61,33.12h21.23ZM124.76,112.27H18.6c3.08,21.02,14.7,40.36,31.51,53.18,35.93,27.39,87.05,20.83,114.89-14.52,8.78-11.14,14.7-24.56,16.77-38.66h-49.78l.38,22.99c-.14.42-.18.53-.63.58-1.49.16-5.01.15-6.51,0-.4-.04-.6-.14-.66-.56,0-7.68.23-15.35.21-23.02Z"/>
  <path d="M17.78,104.65c.07-.4-.08-.78-.11-1.16-1.69-28.28,12.86-56.18,35.94-71.97,40.23-27.54,95.16-14.18,118.71,28.06,7.04,12.62,11.41,29.4,10.35,43.91-.01.15.08.29-.15.25l-51.47-51.25c-.21-.37-.07-1.8-.09-2.35-.08-2.05-.16-4.14-.21-6.19-.02-.95.17-2.72-.02-3.54-.06-.25-.26-.41-.44-.58-.62-.59-2.57-2.02-3.33-2.47s-1.14-.26-1.3.58l-.09,14.23-.12.49c-10.16,9.84-19.9,20.16-30.11,29.93-.26.25-.67.58-.76.92h3.4l27.48-27.33v3.4l-20.62,23.93h3.2l17.32-19.91v3.4l-10.87,16.51h2.9l7.87-11.79-.41,32.92H17.78ZM70.51,95.81c-.21.98-1.12,1.7-2.09,1.82-5.17.61-4.44-6.33-1-6.79,1.23-.16,2.19.12,2.99,1.06.24.28.14.63.61.52.17-.04,2-1.02,2.02-1.14-1.15-2.51-3.98-3.15-6.5-2.64-5.82,1.18-6.16,10.68.17,11.32,4.09.41,6.51-2.23,6.54-6.19h-5.03l-.14.17-.22,1.86h2.64ZM96.1,89.23c-4.92-2.21-9.69.9-9.11,6.42.39,3.75,4.79,5.3,7.92,3.76l.4-2.68c-.53.2-.98.59-1.54.74-2.87.78-5.08-1.59-3.99-4.4,1-2.59,4.22-2.81,6.14-1.12l.19-2.73ZM25.81,99.78h4.62c.48,0,1.64-.32,2.08-.57,2.06-1.15,2.18-4.57-.3-5.28,1.5-.65,2.01-2.72,1.14-4.08-1.09-1.7-4.48-1.01-6.21-1.14l-1.33,11.06ZM44.2,99.78l-2.74-4.42c.4-.27.9-.33,1.31-.62,1.77-1.24,1.82-4.48-.12-5.55-1.02-.56-4.22-.64-5.41-.49-.11.01-.24,0-.31.1l-1.36,10.98h2.54l.51-4.27,2.64,4.27h2.95ZM49.48,88.7h-2.39l-1.47,11.08h2.54l1.32-11.08ZM50.7,99.78c2.54-.1,5.91.43,8.03-1.27s2.56-4.88,1.51-7.2c-1.39-3.09-5.41-2.58-8.2-2.59l-1.34,11.06ZM81.99,88.7h-5.94l-1.32,11.08h5.89l.13-.17.22-1.96h-3.51c-.1-.07-.13-.1-.13-.23-.02-.63.32-1.54.28-2.21h3.45l.3-2.13h-3.45c.08-.72.02-1.61.36-2.24h3.51l.2-2.13ZM100.58,88.7h-2.39l-1.32,11.08h2.39l1.32-11.08ZM109.32,88.7h-7.16l-.14.17-.22,1.96h2.18l.14.17-1,8.77h2.39l1.18-8.77c.03-.13.12-.15.24-.17.33-.06,2.1.07,2.18,0l.21-2.13ZM112.78,88.7h-2.84l3.13,5.97-.59,5.11h2.39c.11-.06.12-.15.15-.26.37-1.56.23-3.45.67-5.02l4.51-5.8h-3l-2.54,3.35c-.2,0-.38-.38-.47-.54-.51-.85-.95-1.92-1.41-2.81Z"/>
  <path d="M124.76,112.27c.03,7.67-.22,15.34-.21,23.02.06.42.26.52.66.56,1.5.15,5.02.16,6.51,0,.45-.05.49-.16.63-.58l-.38-22.99h49.78c-2.07,14.1-7.99,27.51-16.77,38.66-27.85,35.35-78.96,41.92-114.89,14.52-16.81-12.82-28.42-32.16-31.51-53.18h106.17ZM77.3,117.18c-3.01.16-5.03,3.61-2.62,5.61,1,.83,3.85,1.18,2.97,2.86-.71,1.36-3.08.7-3.73-.48l-1.38,1.78c1.99,2.73,7.38,2.21,7.82-1.53.18-1.51-.21-2.37-1.48-3.17-.75-.47-2.63-.86-2.58-1.9.07-1.46,2.54-1.18,3.21-.26l1.26-1.87c-.95-.81-2.24-1.11-3.47-1.05ZM85.75,117.46h-2.39l-1.37,10.97h2.44l.61-4.88,3.4,4.88h3.1l-3.96-5.64,4.67-5.33h-3l-4.01,4.47.51-4.47ZM102.92,128.43l-2.86-10.8c-.04-.13-.12-.15-.24-.17-.31-.06-1.6-.05-1.94,0-.11.01-.22,0-.3.11l-5.74,10.87h2.69l1.24-2.11,4.01.04.65,2.07h2.49ZM111.05,117.46h-7.31l-.2,2.13h2.34l-1.02,8.84h2.39l1.17-8.84h2.29l.13-.17.22-1.96ZM118.47,117.46h-6.1l-1.32,10.97h6.2l.2-2.13h-3.66l.31-2.43,3.44-.02.32-2.12h-3.45l.2-2.13h3.51l.14-.17.22-1.96Z"/>
  <polygon points="153.11 104.65 131.88 104.65 131.27 71.53 153.11 104.65"/>
  <polygon points="131.06 56.09 179.83 104.65 170.13 104.65 131.06 59.49 131.06 56.09"/>
  <polygon points="166.72 104.65 156.21 104.65 131.17 66.81 131.17 63.4 166.72 104.65"/>
  <path class="cls-1" d="M70.51,95.81h-2.64l.22-1.86.14-.17h5.03c-.03,3.96-2.45,6.6-6.54,6.19-6.33-.64-5.99-10.14-.17-11.32,2.52-.51,5.35.13,6.5,2.64-.03.11-1.86,1.09-2.02,1.14-.47.11-.38-.24-.61-.52-.8-.94-1.76-1.22-2.99-1.06-3.44.46-4.17,7.39,1,6.79.97-.11,1.88-.84,2.09-1.82Z"/>
  <path class="cls-1" d="M50.7,99.78l1.34-11.06c2.79,0,6.81-.5,8.2,2.59,1.05,2.32.52,5.57-1.51,7.2s-5.49,1.17-8.03,1.27ZM54.42,90.85l-.97,6.55.04.15c2.2.38,4.38-.56,4.63-3,.27-2.7-1.11-3.77-3.69-3.69Z"/>
  <path class="cls-1" d="M25.81,99.78l1.33-11.06c1.73.13,5.12-.56,6.21,1.14.87,1.36.36,3.43-1.14,4.08,2.48.71,2.36,4.12.3,5.28-.44.24-1.6.57-2.08.57h-4.62ZM29.16,93.27c1.01-.03,2.28-.17,2.24-1.47-.04-1.19-1.13-1.1-2.04-1.07l-.2,2.54ZM28.55,97.74h1.78s.59-.22.65-.26c.55-.34.69-1.35.36-1.87-.44-.69-1.77-.48-2.48-.51l-.31,2.64Z"/>
  <path class="cls-1" d="M44.2,99.78h-2.95l-2.64-4.27-.51,4.27h-2.54l1.36-10.98c.07-.1.2-.09.31-.1,1.19-.15,4.39-.07,5.41.49,1.95,1.07,1.89,4.31.12,5.55-.41.29-.91.34-1.31.62l2.74,4.42ZM39.23,90.74l-.37,2.94c3.04.8,3.94-3.44.37-2.94Z"/>
  <path class="cls-1" d="M81.99,88.7l-.2,2.13h-3.51c-.34.63-.28,1.51-.36,2.24h3.45l-.3,2.13h-3.45c.03.67-.3,1.58-.28,2.21,0,.12.04.16.13.23h3.51l-.22,1.96-.13.17h-5.89l1.32-11.08h5.94Z"/>
  <path class="cls-1" d="M96.1,89.23l-.19,2.73c-1.93-1.69-5.14-1.47-6.14,1.12-1.08,2.81,1.12,5.18,3.99,4.4.56-.15,1.01-.54,1.54-.74l-.4,2.68c-3.13,1.54-7.53,0-7.92-3.76-.58-5.52,4.2-8.64,9.11-6.42Z"/>
  <path class="cls-1" d="M112.78,88.7c.46.9.89,1.96,1.41,2.81.1.16.27.54.47.54l2.54-3.35h3l-4.51,5.8c-.45,1.57-.3,3.46-.67,5.02-.03.11-.04.2-.15.26h-2.39l.59-5.11-3.13-5.97h2.84Z"/>
  <path class="cls-1" d="M109.32,88.7l-.21,2.13c-.08.08-1.84-.06-2.18,0-.12.02-.21.03-.24.17l-1.18,8.77h-2.39l1-8.77-.14-.17h-2.18l.22-1.96.14-.17h7.16Z"/>
  <polygon class="cls-1" points="49.48 88.7 48.16 99.78 45.62 99.78 47.09 88.7 49.48 88.7"/>
  <polygon class="cls-1" points="100.58 88.7 99.26 99.78 96.88 99.78 98.2 88.7 100.58 88.7"/>
  <polygon class="cls-1" points="85.75 117.46 85.24 121.93 89.26 117.46 92.25 117.46 87.58 122.79 91.54 128.43 88.44 128.43 85.04 123.55 84.43 128.43 81.99 128.43 83.36 117.46 85.75 117.46"/>
  <path class="cls-1" d="M102.92,128.43h-2.49l-.65-2.07-4.01-.04-1.24,2.11h-2.69l5.74-10.87c.08-.1.19-.09.3-.11.34-.04,1.63-.05,1.94,0,.12.02.2.04.24.17l2.86,10.8ZM99.26,124.37l-.86-3.76-1.78,3.76h2.64Z"/>
  <path class="cls-1" d="M77.3,117.18c1.23-.07,2.52.24,3.47,1.05l-1.26,1.87c-.67-.92-3.14-1.2-3.21.26-.05,1.04,1.83,1.43,2.58,1.9,1.27.8,1.66,1.66,1.48,3.17-.44,3.74-5.83,4.27-7.82,1.53l1.38-1.78c.65,1.18,3.02,1.83,3.73.48.88-1.68-1.97-2.04-2.97-2.86-2.41-2-.39-5.45,2.62-5.61Z"/>
  <polygon class="cls-1" points="118.47 117.46 118.25 119.42 118.11 119.59 114.61 119.59 114.4 121.72 117.86 121.72 117.54 123.85 114.1 123.86 113.79 126.3 117.45 126.3 117.25 128.43 111.05 128.43 112.37 117.46 118.47 117.46"/>
  <polygon class="cls-1" points="111.05 117.46 110.83 119.42 110.69 119.59 108.41 119.59 107.24 128.43 104.85 128.43 105.87 119.59 103.53 119.59 103.73 117.46 111.05 117.46"/>
  <path d="M54.42,90.85c2.58-.07,3.97,1,3.69,3.69-.25,2.45-2.43,3.39-4.63,3l-.04-.15.97-6.55Z"/>
  <path d="M28.55,97.74l.31-2.64c.71.03,2.04-.18,2.48.51.33.52.19,1.53-.36,1.87-.06.04-.62.26-.65.26h-1.78Z"/>
  <path d="M29.16,93.27l.2-2.54c.91-.04,2.01-.13,2.04,1.07.04,1.31-1.23,1.44-2.24,1.47Z"/>
  <path d="M39.23,90.74c3.57-.51,2.67,3.74-.37,2.94l.37-2.94Z"/>
  <polygon points="99.26 124.37 96.62 124.37 98.4 120.6 99.26 124.37"/>
</svg>