<?xml version="1.0" encoding="UTF-8"?>
<svg id="Layer_1" xmlns="http://www.w3.org/2000/svg" version="1.1" xmlns:xlink="http://www.w3.org/1999/xlink" viewBox="0 0 2000 1429.13">
  <!-- Generator: Adobe Illustrator 29.6.0, SVG Export Plug-In . SVG Version: 2.1.1 Build 207)  -->
  <defs>
    <style>
      .st0 {
        clip-path: url(#clippath-6);
      }

      .st1 {
        clip-path: url(#clippath-7);
      }

      .st2 {
        clip-path: url(#clippath-4);
      }

      .st3 {
        stroke-width: 40px;
      }

      .st3, .st4 {
        fill: #231f20;
      }

      .st3, .st5 {
        stroke: #231f20;
        stroke-miterlimit: 10;
      }

      .st6 {
        fill: #eee0c5;
      }

      .st7 {
        fill: #dd3b33;
      }

      .st8 {
        fill: none;
      }

      .st9, .st5 {
        fill: #7aad88;
      }

      .st10 {
        clip-path: url(#clippath-1);
      }

      .st11 {
        clip-path: url(#clippath-5);
      }

      .st12 {
        clip-path: url(#clippath-3);
      }

      .st5 {
        stroke-width: 60px;
      }

      .st13 {
        clip-path: url(#clippath-2);
      }

      .st14 {
        clip-path: url(#clippath);
      }
    </style>
    <clipPath id="clippath">
      <path class="st8" d="M505.99,629.13c-52.11,26.9-59.21,109.65-13.21,145.89,8.58,6.76,62.45,34.43,72.1,36.92,42.35,10.92,81.41-23.29,100.27-57.54l8.84-32.41c.07-.97-.04-1.97,0-2.95.08-2.1-.91-9.13,2.93-4.38,15.17,27.93,12.75,49.2,2.97,78.04-16.96,49.99-64.93,82.04-118.51,69.9-64.79-14.68-139.24-98.84-143.83-165.55-5.92-86.25,43.85-133.87,123.85-84.04,2.37,3.45-30.38,13.53-35.4,16.12h0Z"/>
    </clipPath>
    <clipPath id="clippath-1">
      <path class="st8" d="M691.66,836.87c8.64-35.14,29.36-73.45,22.87-112.71-4.44-26.84-18.94-26.32-34.69-41.91-25.61-25.34-46.49-54.33-85.4-60.48,5.96-9.01,29-11.28,38.97-10.96,21.28.69,41.27,12.19,60.42,16.2,9.89,2.07,58.21,3.74,62.3,9.89,2.27,48.84,17.09,92.33,1.25,140.47-8.99,27.35-35.54,56.76-65.71,59.48h0Z"/>
    </clipPath>
    <clipPath id="clippath-2">
      <path class="st8" d="M637.71,887.55c9.59-4.04,31.98-26.49,26.77-5.65-8.93,35.72-57.14,63.73-90.57,71.49-84.57,19.64-147.71-60.24-138.57-140.04l50.86,47.82c43.66,27.45,101.06,47.67,151.51,26.39Z"/>
    </clipPath>
    <clipPath id="clippath-3">
      <path class="st8" d="M409.16,818.11c-2.72,25.21,1.01,47.98,8.46,71.81-92.6-17.92-117.87-158.2-36.75-206.33,11.15-.17,9.09,30.99,10.95,39.17,4.88,21.41,22.67,48.2,25.27,60.34,1.08,5.05-6.99,26.24-7.93,35.01Z"/>
    </clipPath>
    <clipPath id="clippath-4">
      <path class="st8" d="M1494.04,628.07c52.48,26.18,60.71,108.82,15.22,145.7-8.49,6.88-61.97,35.29-71.59,37.91-42.19,11.5-81.72-22.17-101.05-56.16l-9.28-32.29c-.08-.97.01-1.97-.04-2.95-.11-2.1.78-9.14-2.99-4.34-14.78,28.13-12.07,49.37-1.89,78.07,17.64,49.75,66.05,81.14,119.46,68.26,64.58-15.57,137.87-100.74,141.54-167.51,4.74-86.32-45.68-133.25-124.99-82.33-2.33,3.48,30.56,13.11,35.61,15.64h0Z"/>
    </clipPath>
    <clipPath id="clippath-5">
      <path class="st8" d="M1311.24,838.34c-9.12-35.01-30.36-73.04-24.41-112.38,4.07-26.9,18.58-26.58,34.11-42.38,25.26-25.69,45.74-54.96,84.56-61.65-6.09-8.93-29.15-10.88-39.11-10.42-21.27.98-41.1,12.76-60.19,17.03-9.86,2.2-58.15,4.54-62.16,10.75-1.6,48.87-15.81,92.55.68,140.48,9.37,27.23,36.32,56.27,66.52,58.57h0Z"/>
    </clipPath>
    <clipPath id="clippath-6">
      <path class="st8" d="M1365.88,888.27c-9.64-3.91-32.34-26.05-26.85-5.28,9.42,35.6,58.01,62.94,91.55,70.24,84.83,18.47,146.87-62.27,136.63-141.94l-50.2,48.51c-43.28,28.05-100.4,49.05-151.13,28.47h0Z"/>
    </clipPath>
    <clipPath id="clippath-7">
      <path class="st8" d="M1593.45,815.7c3.07,25.17-.35,47.99-7.48,71.92,92.34-19.19,115.69-159.8,33.91-206.81-11.15-.02-8.66,31.11-10.41,39.31-4.58,21.48-22.01,48.51-24.44,60.68-1.01,5.06,7.35,26.14,8.41,34.9h0Z"/>
    </clipPath>
  </defs>
  <path class="st5" d="M366.96,763.08c0-404.69,280.94-732.76,627.51-732.76s627.51,328.07,627.51,732.76H366.96Z"/>
  <polygon class="st4" points="722.58 1193.18 702.09 1160.53 1404.29 772.79 1410.42 811.28 722.58 1193.18"/>
  <rect class="st4" x="647.31" y="813" width="195.18" height="34.54"/>
  <polygon class="st4" points="1140.7 815.58 1353.56 815.58 1287.83 850.12 1140.7 850.12 1140.7 815.58"/>
  <path class="st4" d="M1482.37,814.56v-219.59c10.65,3.77,10.41,8.78,72.46,23.55l9.18-43.63c-188.14-57.34-332.44-158.97-390.52-316.54l-6.07-16.47h-4.98v-56.84h-31.01V29.76h-25.18v155.28h-31v56.84h-149.46v-56.84h-31.03V29.76h-25.18v155.28h-31.01v56.84h-4.98l-6.07,16.47c-58.08,157.57-199.12,264.07-419.19,316.54l11.68,48.98c34.58-8.23,67.49-17.89,98.65-28.91v219.59l.25,49.03h-51.82v50.37h371.48v-13.39h323.86v13.39h418.15v-50.37h-98.14l-.08-49.03h0ZM679.57,554.67v308.92h-110.53v-288.25c40.22-17.23,77.11-37.02,110.53-59.25v38.58h0ZM838.59,863.59h-108.66v-385c44.32-37.02,80.69-79.35,108.66-126.58v511.58h0ZM925.13,441.78h-46.16v-137.64h46.16v137.64ZM980.66,304.14h46.15v137.64h-46.15v-137.64h0ZM1063.83,785.45h-123.12v-206.34c0-34,27.56-61.56,61.56-61.56,17,0,32.39,6.88,43.53,18.03,11.14,11.14,18.03,26.53,18.03,43.53v206.34ZM1127.72,441.78h-46.16v-137.64h46.16v137.64ZM1275.46,874.3h-108.66v-511.58c27.98,47.24,64.34,89.58,108.66,126.59v384.99ZM1436.36,751.32v112.27h-110.53v-336.78c33.41,22.23,70.31,42.03,110.52,59.25v63.72h0s0,101.54,0,101.54h0Z"/>
  <g>
    <path class="st3" d="M787.67,923.9c-3.58,6.13-6.9,11.88-9.32,17.24-2.43,5.11-4.21,11.24-6.26,17.75-2.68,8.81-5.75,18.77-10.6,28.48-20.18,39.46-66.41,64.11-120.68,64.11-19.41,0-38.18-3.06-55.3-8.94-1.4,5.24-4.34,9.7-8.43,13.28-20.69,17.62-45.72,26.95-72.53,26.95-29.75,0-59.38-11.62-84.54-30.27-6.64,9.58-20.82,19.41-48.14,30.52-32.05,13.03-66.79,19.16-109.44,19.16-19.67,0-39.59-1.28-59-2.55-1.4-.13-2.81-.13-4.21-.26l-3.07-.25c-.51,0-1.02-.13-1.4-.13l-50.57-4.09,18.13-65.13c10.47-43.29,49.68-100.25,98.46-133.96-76.37-14.3-138.81-79.17-180.95-129.36l-3.45-5.49-32.31-50.95,100.37-24.39c1.15-.26,2.3-.51,3.45-.77,26.69-6.39,55.68-11.75,86.2-11.75,6.77,0,13.54.26,20.43.77,14.81,1.15,54.53,5.87,74.2,24.52,9.58-13.03,21.58-24.01,35.76-32.44,4.21-2.55,9.19-3.83,14.17-3.83,3.7,0,7.02.51,10.09,1.53,3.7-26.82,13.41-49.29,28.35-65.38,16.22-17.5,37.8-26.69,62.19-26.69,23.11,0,47.89,8.3,73.81,24.39,3.32,2.04,6,4.6,8.17,7.79,2.68,3.96,4.34,8.68,4.72,13.41.64-1.41,1.4-2.94,2.3-4.21,13.92-21.07,46.61-23.37,60.02-23.37h2.68c17.37.64,32.56,6,45.97,10.73,6.9,2.55,13.54,4.85,18.9,6,2.81.51,8.43.89,14.81,1.53,37.93,3.32,55.04,5.49,64.87,20.18,2.81,4.09,4.34,8.94,4.6,14.05.64,13.28,2.3,26.31,3.96,39.97,4.47,34.48,8.94,70.24-4.09,109.82-1.66,4.98-3.7,9.96-6.13,14.81,1.41.89,2.81,1.79,4.09,2.81,51.72,41.76,24.39,89.01,9.71,114.42Z"/>
    <g>
      <path class="st7" d="M505.99,629.13c-52.11,26.9-59.21,109.65-13.21,145.89,8.58,6.76,62.45,34.43,72.1,36.92,42.35,10.92,81.41-23.29,100.27-57.54l8.84-32.41c.07-.97-.04-1.97,0-2.95.08-2.1-.91-9.13,2.93-4.38,15.17,27.93,12.75,49.2,2.97,78.04-16.96,49.99-64.93,82.04-118.51,69.9-64.79-14.68-139.24-98.84-143.83-165.55-5.92-86.25,43.85-133.87,123.85-84.04,2.37,3.45-30.38,13.53-35.4,16.12h0Z"/>
      <g class="st14">
        <path class="st7" d="M533.28,603.66c.75-2.32,2.19-4.55,4.4-5.72,2.13-1.13,5.04-1.9,7.38-.97,1.89.76,3.78,1.51,5.68,2.27,2.4.96,4.37,2.08,5.72,4.4,1.2,2.05,1.71,5.08.97,7.38-.75,2.32-2.19,4.55-4.4,5.72-2.13,1.13-5.04,1.9-7.38.97-1.89-.76-3.78-1.51-5.68-2.27-2.4-.96-4.37-2.08-5.72-4.4-1.2-2.05-1.71-5.08-.97-7.38h0Z"/>
      </g>
    </g>
    <path class="st7" d="M740.39,969.61c-31.19,61.37-139.47,63.56-184.25,16.08,21.5-6.64,43.98-7.93,64.75-17.72,24.29-11.45,51.03-36.41,63.53-60.22,4.32-8.22,11.11-34.71,13.87-37.71,2.87-3.13,29.16-12.11,38.54-18.9,10.22-7.4,17.51-18.05,27.42-25.8,41.67,33.68,7.89,65.87-7.4,98.85-6.72,14.49-9.2,31.18-16.45,45.43h0Z"/>
    <g>
      <path class="st7" d="M691.66,836.87c8.64-35.14,29.36-73.45,22.87-112.71-4.44-26.84-18.94-26.32-34.69-41.91-25.61-25.34-46.49-54.33-85.4-60.48,5.96-9.01,29-11.28,38.97-10.96,21.28.69,41.27,12.19,60.42,16.2,9.89,2.07,58.21,3.74,62.3,9.89,2.27,48.84,17.09,92.33,1.25,140.47-8.99,27.35-35.54,56.76-65.71,59.48h0Z"/>
      <g class="st10">
        <path class="st7" d="M710.24,701.21c1.56-16.74,9.74-33.72,24.94-42.02,1.98-1.08,3.76,1.95,1.77,3.03-12.68,6.93-20.13,20.44-22.58,34.34-3.06,17.29,1.41,35.2,6.83,51.55,4.37,13.2,10.34,26.68,20.6,36.39,5.3,5.02,11.72,8.69,18.81,10.49,7.94,2.01,16.35,1.71,24.3-.05,18.69-4.15,34.2-16.22,48.98-27.76,1.76-1.38,4.26,1.09,2.48,2.48-13.85,10.81-28.14,22-45.18,27.25-15.84,4.88-33.71,4.12-47.33-6.09-11.93-8.95-19.09-22.65-24.17-36.36-6.2-16.76-11.14-35.24-9.47-53.25h0Z"/>
      </g>
    </g>
    <g>
      <path class="st7" d="M637.71,887.55c9.59-4.04,31.98-26.49,26.77-5.65-8.93,35.72-57.14,63.73-90.57,71.49-84.57,19.64-147.71-60.24-138.57-140.04l50.86,47.82c43.66,27.45,101.06,47.67,151.51,26.39Z"/>
      <g class="st13">
        <path class="st7" d="M662.9,868.13l2.27-4.54c1.03-2.07,3.55-3.8,5.72-4.4,2.29-.63,5.35-.35,7.38.97,2.05,1.32,3.85,3.28,4.4,5.72.59,2.61.23,4.98-.97,7.38l-2.27,4.54c-1.03,2.07-3.55,3.8-5.72,4.4-2.29.63-5.35.35-7.38-.97-2.05-1.32-3.85-3.28-4.4-5.72-.59-2.61-.23-4.98.97-7.38h0Z"/>
      </g>
    </g>
    <path class="st7" d="M389.63,907.69c11.23,12.1,31.58,8.57,42.7,13.23,4.13,1.73,28.11,30.44,38.6,38,15.01,10.82,32.08,15.56,45.41,25.3,6.09,4.45,36.67,32.64,41.37,38.18,1.81,2.13,5.14,3.91,4.3,7.37-67.53,57.79-171.66-17.69-176.87-94.05-.36-5.22-1.45-27.69,4.5-28.04h0Z"/>
    <g>
      <path class="st7" d="M409.16,818.11c-2.72,25.21,1.01,47.98,8.46,71.81-92.6-17.92-117.87-158.2-36.75-206.33,11.15-.17,9.09,30.99,10.95,39.17,4.88,21.41,22.67,48.2,25.27,60.34,1.08,5.05-6.99,26.24-7.93,35.01Z"/>
      <g class="st12">
        <path class="st7" d="M379.79,669.98c.46-1.62,1.28-3.03,2.46-4.23,1.78-2.26,3.55-4.52,5.33-6.79,1.41-1.8,4.61-2.81,6.77-2.81,2.35,0,5.16,1.04,6.77,2.81,1.68,1.83,2.92,4.22,2.81,6.77-.11.85-.23,1.7-.34,2.55-.46,1.62-1.28,3.03-2.46,4.23-1.78,2.26-3.55,4.52-5.33,6.79-1.41,1.8-4.61,2.81-6.77,2.81-2.35,0-5.16-1.04-6.77-2.81-1.68-1.83-2.92-4.22-2.81-6.77.11-.85.23-1.7.34-2.55Z"/>
      </g>
    </g>
    <path class="st9" d="M303.7,807.21l13.78,56.21c-88,15.72-163.54-59.18-215.11-120.77,69.58,13.21,135.58,39.36,201.33,64.56h0Z"/>
    <path class="st9" d="M377.74,999.08c3.7,6.99,21.49,28.44,21.92,31.3.87,5.77-29.65,19.57-36,22.15-53.84,21.88-107.33,17.9-164.06,14.17,45.81-45.71,104.83-76.6,163.56-103.07,5.93,11.12,8.68,24.3,14.58,35.45h0Z"/>
    <path class="st7" d="M644.76,708.74c.82,33.7-32.88,84.55-70.93,72.15,1.33-4.95,9.23-3.74,14.61-7.43,36.16-24.87,29.13-74.45-11.77-88.19-33.4-11.22-56.36,16.22-48.72,48.74,2.47,10.51,11.6,16.24,13.44,26.29-25.46-.62-51.12-28.21-49.84-54.03,4.4-88.7,151.42-71.3,153.22,2.49h0Z"/>
    <path class="st9" d="M342.54,889.7c30.79.06,14.85,24.14,15.7,43.97-60.1,24.18-115.84,58.94-167.44,97.7,14.21-58.66,88.08-141.8,151.74-141.67h0Z"/>
    <path class="st9" d="M130.25,719.12c-4.3-1.27-5.13,1.69-4.32-5.96,43.13-11.27,82.91-21.25,128.3-17.81,11.3.86,60.15,9.38,60.31,22.09l-13.32,57.62c-55.75-22.76-113.27-38.96-170.97-55.94h0Z"/>
  </g>
  <g>
    <g>
      <path class="st6" d="M710.09,901.7s-.05-.09-.08-.13c-.14-.2-.16-.21-.27-.36-.23-.3-.48-.58-.71-.87.11.2.52.73,1.06,1.36Z"/>
      <path class="st4" d="M517.88,1087.93c-92.12,25.04-166.52,99.67-183.12,196.85-4.72,27.66-5.31,56.81,7.7,82.47,12.55,24.74,35.77,41.73,61.11,51.67,49.02,19.23,105.15,9.69,150.35-15.2,45.01-24.78,78.57-65,105.27-108.47,29.85,34.82,78.55,50.4,125.46,40.4,51.53-10.99,90-49.73,110.62-96.5,8.88,7.24,19.17,12.9,29.97,16.54,26.78,9.03,58.61,6.52,85.29-1.76,26.52-8.23,50.1-23.42,66.65-45.88,8.78-11.92,14.35-25.64,17.24-39.9,35.52,25.75,85.5,27.64,123.24,1.13,49.73-34.94,66.46-98.97,48.68-156-6.5-20.86-18.43-41.03-35.77-53.09,0,0-26.46-16.11-64.92-17.03s-647.77,144.76-647.77,144.76h0Z"/>
      <path class="st6" d="M526.57,1366.96c-40.99,21.17-108.7,28.84-139.83-13.77-16.68-22.83-9.78-56.19-2.55-81.2,7.59-26.25,20.58-51.25,37.9-72.41,33.95-41.45,83.95-68.36,137.22-73.97,1.26-.13,2.39-.44,3.54-.73,7.5,3.88,15.27,7.47,23.48,10.46,10.79,3.92,21.9,7.72,33.16,11.29l-77.91,71.01c-1.7,1.55-3.56,3.18-5.5,4.86-11.67-2.81-13.47-2.97-23.18-2.15-1.58.13-2.71.21-7.06,1.78-.5.14-.99.16-1.48.35-13.65,5.15-25.56,14.34-32.18,27.64-6.16,12.37-8.49,26.38-5.21,39.92.17,2.34.54,4.71.89,6.91.64,3.97,2.3,7.65,4.04,11.27,1.71,3.55,4.32,6.75,6.99,9.61,2.8,3,6.23,5.59,9.78,7.63.67.38,1.42.67,2.12,1.03,2.03,1.62,4.08,3.26,6.42,4.37.34.16.69.31,1.04.46,2.12.88,4.23,1.83,6.39,2.61.71.26,1.44.46,2.17.64,1.67.5,3.33.7,4.99.71,1.55.43,3.08.96,4.65,1.22,22.35,3.78,44.82-5.02,58.04-23.31,6.17-2.76,12.17-5.59,17.62-8.23,3.01-1.46,5.99-2.97,8.98-4.47-20.12,27.01-44.13,50.78-74.52,66.47h0Z"/>
      <path class="st6" d="M778.53,1290.51c-33.01,8.85-70.56-2.55-89.53-30.57,5.45-1.85,10.82-3.93,16.44-5.36,7.28-1.85,14.66-3.09,22.07-3.95,4.81,7.53,11.31,14.18,19.27,18.4,7.99,4.24,17.26,6.85,26.37,6.47,15.37-.65,29.47-8.34,38.92-20.27,2.69-.53,5.4-1.21,8.14-2.19,9.2-3.28,17.23-8.93,25.09-14.85-14.96,24.79-37.24,44.4-66.77,52.32h0Z"/>
      <path class="st6" d="M1039.71,1182.94c-10.11,13.55-25.61,22.4-41.38,27.31-17.94,5.58-36.7,8.26-55.92,3.27-4.84-1.26-8.32-2.55-12.4-4.88-1.74-1-3.49-2.13-5.13-3.32-.35-.43-3.25-2.97-3.24-2.96-.31-.31-2.18-2.36-2.84-2.99,14.6-4.43,29.51-7.04,44.64-8.45.81.63,1.54,1.35,2.45,1.88,1.08.76,2.23,1.42,3.44,1.95,2.87,1.25,5.81,2.66,8.88,3.41,3.13.77,6.42,1.08,9.61,1.31,1.26.09,2.54.07,3.8-.05,3.08-.3,6.21-.66,9.22-1.44,2.95-.77,5.88-2.18,8.59-3.39,1.15-.52,2.26-1.12,3.3-1.84,2.6-1.79,5.25-3.71,7.48-5.98,1.52-1.41,2.61-3.06,3.52-4.82,2.13-.88,4.29-1.49,6.4-2.62,6.47-3.46,12.25-7.92,17.95-12.49-2.04,5.59-4.66,11.12-8.36,16.09h0Z"/>
      <path class="st6" d="M973.18,1032.06c79.12,5.54,103.15,5.18,127.45.16,4.58-.95,9.12-1.97,13.68-2.96,11.77,8.93,23.55,17.86,35.32,26.78,5.82,4.41,16.9,10.04,21.24,16.17.59.84.89,1.41,1.26,2.05-.29,1.65-.78,3.25-1.28,4.84-.12.23-.27.45-.39.68-1.95.55-4.64,1.01-8.62,1.9-28.65,6.37-58.02,6.84-86,16.69-12.81,4.51-25.31,10.18-36.48,17.96-11.46,7.99-21.79,20.33-35.09,25.33-14.25,5.36-32.64,2.37-47.69,4.02-15.05,1.65-30.07,4.29-44.65,8.39-28.18,7.92-55.6,20.52-79.59,37.31-11.54,8.07-22.53,20.59-37.5,20.09-16.42-.55-32.46-6.96-49.24-7.27-64.53-1.2-120.42,34.52-176.36,61.61-7.29,3.53-14.66,7.09-22.22,10.03,5.62-5.16,11.61-12.45,14.91-15.46,6.84-6.23,13.67-12.46,20.51-18.7,29.9-27.25,59.8-54.5,89.7-81.76,47.36-36.54,53.99-46.93,79.62-51.66l221.43-76.21h0Z"/>
      <path class="st6" d="M1212.3,1112.21c-19.81,29.01-62.51,40.92-90.21,21.28,2.21-.41,4.42-.89,6.62-1.26,9.77-1.65,21.39-2.91,33.06-4.93,1.78,1.1,3.66,2.02,5.75,2.47,2.01.25,4.02.5,6.03.75,3.99-.07,7.71-1.1,11.15-3.1,4.76-2.3,9.09-5.64,13.03-9.11,1.65-1.45,3.13-3.13,4.58-4.82,10.89-7.23,18.54-17.84,19.51-34.18.35-6.04-.69-11.43-2.57-16.41,0-.01,0-.03,0-.04-1.28-11.31-4.26-22.3-10.69-31.88-3.37-5.02-7.83-8.92-13.82-10.49-4.8-1.26-10.85-.73-15.5,1.56-4.01-3.03-8-6.07-12.01-9.11,6.21-2.84,12.32-5.96,18.21-9.76,3.99-2.57,7.54-5.59,11.26-8.44,20.02,2.42,28.02,32.56,30.41,49.6,3.33,23.76-1.24,48-14.82,67.89h0Z"/>
    </g>
    <path class="st6" d="M1189.35,959.12l1.21-19.01c1.27-19.95,5-39.72,8.6-58.85l.96-5.09c4.58-24.44,9.03-50.74,10.49-77.38,2.83-51.45-4.83-102.93-12.92-151.25l-.3-1.76c-4.12-24.62-8.38-50.09-13.63-74.83-4.64-21.91-9.98-45.03-19.64-65.75-11.06-23.75-26.21-38.35-46.31-44.64-2.74-.86-5.65-1.61-8.62-2.22-21.3-4.36-43.49-1.47-58.37,1.72l-7.59,1.75-3.04-5.84c-8.22-15.77-25.57-27.73-46.39-32-.68-.14-1.35-.27-2.03-.39-14.23-2.54-29.52-2.73-43.93-2.57-15.55.18-28.23,2.86-38.78,8.21-5.86,2.97-11,6.94-15.28,11.8l-5.09,5.78-6.26-4.49c-1.65-1.18-3.64-2.04-5.74-2.47-1.1-.22-2.23-.34-3.37-.33-18.92.04-37.86,12.93-48.24,32.83-8.5,16.29-9.82,35.35-10.39,51.93l-.26,7.74-7.72.47c-5.7.35-10.7.73-15.29,1.17-10.82,1.03-11.38,11.1-11.38,13.1v.67s-.11.66-.11.66c-3.83,24.09-5.2,48.42-4.08,72.32.14,2.95,1.01,5.38,2.59,7.2l.47.55.37.62c1.68,2.78,4.1,4.51,7.18,5.14,1.15.24,2.41.32,3.74.25,1.86-.1,3.71-.17,5.57-.25l11.3-.45-1.54,10.19c-2.73,18.11-5.93,34.56-9.79,50.29-11.74,47.93-50.09,82.27-85.12,110.7-24.15,19.6-50.03,37.34-75.06,54.5-12.89,8.84-26.22,17.98-39.1,27.23-32.23,23.15-71.05,55.97-85.27,104.81-10.54,36.19-2.34,83.55,33.72,104.05l9.78,5.56s40.86,15.14,116.3,23.81c0,0,147.97-2.05,281.02-89.88l139.22-124.92-8.94,106.14,103.88-41.25,3.19-15.58Z"/>
    <path class="st4" d="M1207.37,973.47c.83-26.23,6.7-52.09,12.11-77.68,5.73-27.07,10.82-54.03,12.98-81.65,4.19-53.56-2.29-107.16-9.9-160.12-3.87-26.94-7.72-53.9-12.74-80.65-4.51-23.98-9.67-48.58-19.5-71.01-10.61-24.23-26.82-43.85-52.54-52.56-23.18-7.85-50.63-6.98-74.41-2.44-.46.09-.91.19-1.36.29-10.34-21.01-32.36-34.98-55.97-39.76-15.43-3.12-31.72-3.73-47.44-3.92-15.36-.18-30.66,1.83-44.61,8.5-7.58,3.63-13.8,8.38-18.93,13.93-4.05-3.05-9.18-4.82-14.6-4.93-25.14-.53-47.35,16.37-59.11,37.69-9.76,17.69-12.04,37.77-13.18,57.73-5.43.21-10.86.48-16.29.87-13.5.97-20.19,11.49-20.44,22.06-4.65,25.43-6.76,51.34-6.15,77.18.13,5.45,1.87,9.77,4.56,13.03,3.54,6.18,9.99,10.63,19.25,10.35,2.25-.07,4.5-.1,6.75-.14-3.04,17.39-6.71,34.61-11.25,51.46-12.57,46.61-51.47,80.21-88.36,108.76-38.58,29.86-80.48,54.74-120.69,82.23-41.5,28.37-79.39,62.71-94.98,111.98-14.63,46.22-1.82,103.36,45.64,124.42,49.59,22.01,107.35,20.19,160.46,19.85,46.03-.3,92.19-2.6,137.2-12.92,25.44-5.84,50.03-14.83,73.14-27,25.28-13.32,47.68-31.19,69.66-49.27,3.35-2.76,6.67-5.54,10.01-8.31,31.63,4.66,63.33,8.74,95.11,12.18.06,0,.12,0,.18.01,3.89.88,7.94.97,11.59.15,28.08-6.32,56.17-12.65,84.26-18.97,13.95-3.14,27.86-5.79,35.55-19.36,7.01-12.38,3.59-28.46,4.02-42h0ZM984.36,678.2c.41-1.17.8-2.35,1.2-3.53,34.11,13.35,66.84,30.42,97.52,50.99,9.97,6.69,24.83.81,30.12-9.03.46-.86.84-1.73,1.18-2.6,15.59-23.7,23.11-51.65,23.13-79.95,0-7.57-4.6-14.23-10.92-18-.6-.47-1.22-.93-1.87-1.38-5.1-3.6-10.21-7.2-15.31-10.8-.98-.69-2.15-1.21-3.42-1.62-27.38-18.74-56.68-34.57-87.28-47.32,2.37-8.16,4.98-16.2,8.04-23.98,7.53-19.08,18.63-32.27,36.92-38.04,17.45-5.5,42.72-7.29,61.21-.78,16.02,5.64,23.29,22.06,28.72,38.51,7.48,22.64,12.31,46.21,16.17,69.71,7.24,44.06,14.24,88.6,17.61,133.23-16.29,20.79-34.79,40.39-55.75,56.43-9.64,7.38-19.91,14.58-31.71,17.34-11.43,2.67-23.54-1.94-34.39-7.56-9.88-5.12-19.05-10.03-23.87-20.42-5.9-12.72-9.08-26.18-17.83-37.52-12.98-16.81-31.28-28.56-51.57-33.2,4.39-9.94,8.44-20.09,12.09-30.48h0ZM921.71,465.9c4-8.99,9.74-13.62,18.09-15.9,8.02-2.2,20.31-1.72,30.13-1.31,12.79.54,26.91.78,38.7,6.28,4.62,2.16,7.88,4.31,10.85,7.78.66.77,1.24,1.55,1.74,2.34-6.61,4.78-12.59,10.43-17.62,17.01-13.08,17.11-20.3,37.25-26.29,57.72-20.53-6.49-41.48-11.64-62.68-15.44.56-7.59,1.03-15.18,1.42-22.78.6-11.76,1.11-25.44,5.67-35.7h0ZM897.68,649.18c15.53,3,30.9,6.73,46.06,11.18-5.27,15.51-11.31,30.75-18.64,45.49-3.27,6.57-6.79,12.98-10.49,19.27-9.17-8.42-18.76-16.29-29.18-22.88,4.59-17.58,8.66-35.27,12.25-53.06h0ZM859.24,736.85c15.3,6.7,19.48,13.2,30.04,25.41-5.27,6.76-10.78,13.34-16.49,19.76-17.29-17.47-39.15-29.73-62.71-36.14,2.94-5,6.19-11.63,8.5-16.91,13.52-3.17,31.52,3.87,40.66,7.88h0ZM843.81,685.65c-3.94-.63-7.9-1-11.85-1.1.92-4.23,1.79-8.47,2.62-12.71,1.98-10.08,3.79-20.19,5.44-30.32,4.57.34,9.13.74,13.68,1.2-2.98,14.38-6.27,28.69-9.89,42.93h0ZM1007.38,598.66c27.97,12.09,54.83,26.96,80.12,44.52,1.16.8,2.39,1.41,3.66,1.87.46.33.92.65,1.39.98-1.03,9.88-3.53,19.34-7.33,28.37-27.53-16.77-56.57-30.96-86.63-42.48l-.76-.33c-44.49-19.38-92.36-26.16-92.36-26.16-17.88-4.46-43.77-6.55-43.77-6.55-5.17-.56-55.95-2.89-61.14-3.3.44-3.78.86-7.56,1.25-11.35.84-8.14,1.6-16.28,2.28-24.44,5.62.29,23.1-3.58,63.07,2.01,0,0,19.52,1.98,43.27,7.11,0,0,55.59,9.38,96.69,29.61l.26.13h0ZM862.91,476.36c4.21-5.48,8.11-8.5,12.88-9.76-2.06,9.37-3.16,19.06-3.73,28.51-.47,7.8-.98,15.58-1.54,23.36-6.05-.54-12.12-.97-18.19-1.29.27-4.24.65-8.48,1.25-12.67,1.38-9.59,4.47-21.85,9.32-28.16h0ZM781.13,783.39c23.29,1.68,43.43,13.78,60.49,30.38-.1.1-.21.2-.31.29-5.73,5.31-11.59,10.5-17.55,15.6-16.8-14.23-36.28-24.69-57.1-30.82,4.54-4.37,10.21-10.85,14.47-15.44h0ZM727.77,831.74c24.05-.26,40.99,12.25,60.3,26.29-5.91,4.37-15.63,11.68-21.67,15.86-13.16-12.66-30.52-20.45-47.27-25.09-3.31-.92-5.86-1.26-12.14-1.96,4.14-3.06,16.65-11.95,20.78-15.11h0ZM659.36,880.43c16.7-.33,24.27,1.05,43.47,10.01,7.97,3.72,16,6.65,20.55,10.38h0c-4.55,2.75-4.39,2.63-8.98,5.28-20.43,11.82-42.88,22.31-66.98,21.96-14.07-.2-28.31-4.85-38.45-14.41,14.78-9.96,35.45-23.5,50.38-33.23h0ZM1101.2,1004.42c2.6-28.43,6.5-56.71,11.54-84.83,4.1-22.83-21.47-34.41-37.87-20.18-38.82,33.67-77.65,67.35-117.05,100.34-33.78,28.29-67.93,57.32-109.79,72.79-39.13,14.45-80.54,19.31-121.99,21.08-21.96.94-43.94,1.02-65.91.95-24.66-.08-49.43-.41-73.81-4.47-18.15-3.02-43.68-6.71-56.36-21.81-10.01-11.92-12.49-31.82-10.05-47.03,5.38-33.58,26.98-59.81,52.68-81.12,26.99,31.07,73.27,37.86,112.25,27.29,22.5-6.1,43.54-17.59,63.32-29.69,20.17-12.34,39.94-25.42,59.13-39.25,37.75-27.2,73.81-57.59,104.13-93.02,14.74-17.23,27.72-35.39,39.06-54.47,10.6-.52,19.29,1.61,28.97,8.5,7.59,5.41,12.67,14.21,16.71,25.06,5.81,15.64,12.61,29.79,25.99,40.34,13.59,10.71,30.1,19.15,46.62,24.22,32.25,9.89,63.43-3.27,88.75-23.14,11.05-8.68,21.55-17.94,31.53-27.72-.55,13.96-1.8,27.88-3.98,41.73-4.5,28.58-11.8,56.62-16.69,85.13-2.57,15-4.42,30.16-5.21,45.36-.35,6.69-.28,13.33-.12,20.01-20.6,4.69-41.21,9.32-61.82,13.94h0Z"/>
  </g>
  <g>
    <path class="st3" d="M1955.94,700.94l-31.98,51.91-.62,1.16-1.88,2.96c-.12.39-.37.77-.75,1.03v.13c-41.44,50.89-103.37,117-179.79,132.36,49.37,33.17,89.61,89.83,100.81,133.1l19.03,65-48.09,4.49-11.35,1.05c-19.39,1.54-39.42,3.1-59.21,3.37-42.78.59-77.72-5.06-110.08-17.64-27.61-10.73-42.04-20.37-48.69-29.98-24.9,19.12-54.62,31.15-84.37,31.56-26.94.37-52.23-8.6-73.16-26.07-4.14-3.52-7.26-8.07-8.87-13.29-.76.27-1.4.53-2.16.8,6.13,18.94-12.35,39.63-22.17,50.5-10.19,11.51-26.84,26.29-37.82,35.64-60.86,50.9-136.8,82.6-221.08,92.69l-90.64-1.2,3.18-28.68,20.84-31.01c10.43-86.61,67.99-163.64,154.13-206.21,1.52-.79,3.05-1.32,4.7-1.85-1.07-3.43-2.39-6.74-3.71-9.66-2.63-5.33-6.03-11.16-9.69-17.24-15.03-25.21-43.14-72.33,8.25-114.93,1.26-1.04,2.53-1.95,3.92-2.74-2.49-4.95-4.61-9.9-6.33-14.86-13.57-39.66-9.6-75.48-5.6-110.27,1.6-13.69,3.08-26.74,3.53-40.15.06-5.11,1.65-9.98,4.4-14.24,9.5-14.82,26.71-17.23,64.72-21.07,6.5-.73,11.99-1.19,14.79-1.74,5.47-1.22,12.08-3.61,19.07-6.26,13.34-4.91,28.46-10.61,45.82-11.36l2.81-.04c13.41-.18,46.25,1.53,60.59,22.54.91,1.26,1.7,2.66,2.23,4.06v.38c0,.13.13.13.14.25.19-4.98,1.91-9.86,4.53-13.98,2.13-3.22,4.9-5.81,8.07-7.9,25.83-16.58,50.61-25.09,73.72-25.41,24.52-.34,46.22,8.56,62.81,25.83,15.29,15.88,25.3,38.35,29.38,65.24,3.05-1.06,6.36-1.62,10.07-1.67,4.98-.07,9.98,1.14,14.35,3.63,14.29,8.23,26.57,19.18,36.33,31.94,19.41-18.91,59.18-24.18,74.11-25.54,6.89-.61,13.78-.96,20.42-1.05,30.77-.42,59.83,4.54,86.61,10.56l17.3,3.98,87.37,19.87h0Z"/>
    <g>
      <path class="st7" d="M1494.04,628.07c52.48,26.18,60.71,108.82,15.22,145.7-8.49,6.88-61.97,35.29-71.59,37.91-42.19,11.5-81.72-22.17-101.05-56.16l-9.28-32.29c-.08-.97.01-1.97-.04-2.95-.11-2.1.78-9.14-2.99-4.34-14.78,28.13-12.07,49.37-1.89,78.07,17.64,49.75,66.05,81.14,119.46,68.26,64.58-15.57,137.87-100.74,141.54-167.51,4.74-86.32-45.68-133.25-124.99-82.33-2.33,3.48,30.56,13.11,35.61,15.64h0Z"/>
      <g class="st2">
        <path class="st7" d="M1466.4,602.98c-.78-2.31-2.25-4.52-4.48-5.66-2.15-1.1-5.06-1.83-7.39-.86-1.88.78-3.76,1.57-5.64,2.35-2.39.99-4.34,2.14-5.66,4.48-1.17,2.07-1.64,5.1-.86,7.39.78,2.31,2.25,4.52,4.48,5.66,2.15,1.1,5.06,1.83,7.39.86,1.88-.78,3.76-1.57,5.64-2.35,2.39-.99,4.34-2.14,5.66-4.48,1.17-2.07,1.64-5.1.86-7.39h0Z"/>
      </g>
    </g>
    <path class="st7" d="M1264.34,971.73c32.03,60.93,140.33,61.63,184.46,13.54-21.59-6.34-44.09-7.33-64.99-16.83-24.44-11.12-51.53-35.71-64.35-59.34-4.43-8.16-11.59-34.55-14.39-37.52-2.92-3.09-29.32-11.71-38.79-18.37-10.33-7.26-17.76-17.81-27.77-25.42-41.2,34.25-6.99,65.97,8.76,98.74,6.92,14.4,9.63,31.05,17.07,45.2h0Z"/>
    <path class="st9" d="M1336.15,1050.3c-15.8-1.18-35.03-11.87-48.48-6.69-62.97,46-125.83,92.71-180.79,148.2,83.98-5.66,165.39-34.56,230.02-88.67,10.55-8.83,25.97-22.7,35.03-32.78,2.29-2.55,17.88-21.81,15.81-23.83-14.68,4.22-36.05,4.92-51.59,3.76h0Z"/>
    <g>
      <path class="st7" d="M1311.24,838.34c-9.12-35.01-30.36-73.04-24.41-112.38,4.07-26.9,18.58-26.58,34.11-42.38,25.26-25.69,45.74-54.96,84.56-61.65-6.09-8.93-29.15-10.88-39.11-10.42-21.27.98-41.1,12.76-60.19,17.03-9.86,2.2-58.15,4.54-62.16,10.75-1.6,48.87-15.81,92.55.68,140.48,9.37,27.23,36.32,56.27,66.52,58.57h0Z"/>
      <g class="st11">
        <path class="st7" d="M1290.8,702.95c-1.79-16.71-10.21-33.58-25.52-41.68-2-1.06-3.73,2-1.73,3.06,12.77,6.75,20.4,20.16,23.05,34.02,3.3,17.24-.92,35.21-6.12,51.64-4.19,13.26-9.97,26.82-20.1,36.67-5.23,5.09-11.6,8.85-18.67,10.74-7.91,2.11-16.32,1.94-24.3.28-18.75-3.89-34.42-15.75-49.36-27.08-1.78-1.35-4.25,1.15-2.45,2.52,14,10.62,28.44,21.61,45.55,26.62,15.9,4.66,33.76,3.66,47.24-6.74,11.81-9.11,18.78-22.91,23.67-36.69,5.97-16.84,10.66-35.39,8.73-53.37h0Z"/>
      </g>
    </g>
    <g>
      <path class="st7" d="M1365.88,888.27c-9.64-3.91-32.34-26.05-26.85-5.28,9.42,35.6,58.01,62.94,91.55,70.24,84.83,18.47,146.87-62.27,136.63-141.94l-50.2,48.51c-43.28,28.05-100.4,49.05-151.13,28.47h0Z"/>
      <g class="st0">
        <path class="st7" d="M1340.43,869.2l-2.33-4.51c-1.06-2.05-3.61-3.75-5.78-4.32-2.3-.6-5.35-.27-7.37,1.07-2.03,1.35-3.8,3.33-4.32,5.78-.56,2.61-.17,4.98,1.07,7.37l2.33,4.51c1.06,2.05,3.61,3.75,5.78,4.32,2.3.6,5.35.27,7.37-1.07,2.03-1.35,3.8-3.33,4.32-5.78.56-2.61.17-4.98-1.07-7.37Z"/>
      </g>
    </g>
    <path class="st7" d="M1614.22,905c-11.06,12.25-31.46,9-42.51,13.82-4.1,1.79-27.69,30.83-38.08,38.53-14.86,11.02-31.87,16-45.06,25.93-6.03,4.54-36.22,33.14-40.84,38.75-1.78,2.16-5.08,3.98-4.2,7.43,68.32,56.85,171.4-20.05,175.56-96.48.28-5.22,1.07-27.71-4.88-27.97Z"/>
    <g>
      <path class="st7" d="M1593.45,815.7c3.07,25.17-.35,47.99-7.48,71.92,92.34-19.19,115.69-159.8,33.91-206.81-11.15-.02-8.66,31.11-10.41,39.31-4.58,21.48-22.01,48.51-24.44,60.68-1.01,5.06,7.35,26.14,8.41,34.9h0Z"/>
      <g class="st1">
        <path class="st7" d="M1620.79,667.18c-.48-1.62-1.32-3.01-2.52-4.19-1.81-2.24-3.61-4.47-5.42-6.71-1.43-1.78-4.65-2.74-6.81-2.71-2.35.03-5.14,1.11-6.73,2.9-1.65,1.85-2.86,4.26-2.71,6.81.13.85.25,1.69.38,2.54.48,1.62,1.32,3.01,2.52,4.19,1.81,2.24,3.61,4.47,5.42,6.71,1.43,1.78,4.65,2.74,6.81,2.71,2.35-.03,5.14-1.11,6.73-2.9,1.65-1.85,2.86-4.26,2.71-6.81-.13-.85-.25-1.69-.38-2.54h0Z"/>
      </g>
    </g>
    <path class="st9" d="M1698.76,803.35l-13.01,56.4c88.21,14.51,162.71-61.43,213.43-123.72-69.39,14.16-135.03,41.22-200.42,67.33Z"/>
    <path class="st9" d="M1627.36,996.22c-3.6,7.04-21.1,28.74-21.49,31.6-.79,5.79,29.91,19.16,36.3,21.65,54.13,21.14,107.57,16.42,164.24,11.91-46.44-45.08-105.88-75.15-164.96-100.81-5.77,11.2-8.34,24.42-14.09,35.65h0Z"/>
    <path class="st9" d="M1233.51,975c-72.98,36.09-128.88,101.85-138.85,184.59l171.96-136.53c-10.76-16.69-29.54-26.77-33.12-48.06h0Z"/>
    <path class="st7" d="M1356.38,709.57c-.36,33.71,34.04,84.09,71.92,71.17-1.39-4.93-9.28-3.61-14.71-7.23-36.5-24.38-30.15-74.04,10.55-88.35,33.24-11.68,56.58,15.44,49.39,48.06-2.32,10.55-11.37,16.39-13.07,26.47,25.45-.97,50.73-28.91,49.09-54.71-5.62-88.63-152.39-69.21-153.17,4.6h0Z"/>
    <path class="st9" d="M1661.06,886.36c-30.79.49-14.52,24.34-15.09,44.18,60.42,23.35,116.63,57.35,168.76,95.39-15.02-58.46-90.02-140.57-153.67-139.57Z"/>
    <path class="st9" d="M1870.98,712.89c4.28-1.32,5.16,1.62,4.24-6.01-43.28-10.68-83.2-20.11-128.53-16.04-11.29,1.01-60.02,10.2-60,22.91l14.11,57.43c55.43-23.53,112.72-40.51,170.19-58.28h0Z"/>
  </g>
  <path class="st4" d="M969.68,791.23c-27.84-6.66-38.23,36.6-10.35,43.27,27.84,6.66,38.23-36.6,10.35-43.27Z"/>
  <path class="st4" d="M922.92,846.19c-27.84-6.66-38.23,36.6-10.35,43.27,27.84,6.66,38.23-36.6,10.35-43.27Z"/>
  <path class="st4" d="M874.03,891.97c-27.84-6.66-38.23,36.6-10.35,43.27,27.84,6.66,38.23-36.6,10.35-43.27Z"/>
  <path class="st4" d="M819.22,935.25c-27.84-6.66-38.23,36.6-10.35,43.27,27.84,6.66,38.23-36.6,10.35-43.27Z"/>
</svg>