<?xml version="1.0" encoding="UTF-8"?>
<svg id="Layer_1" data-name="Layer 1" xmlns="http://www.w3.org/2000/svg" xmlns:xlink="http://www.w3.org/1999/xlink" viewBox="0 0 2000 2000">
  <defs>
    <style>
      .cls-1 {
        stroke: #231f20;
        stroke-miterlimit: 10;
        stroke-width: 40px;
      }

      .cls-1, .cls-2 {
        fill: #231f20;
      }

      .cls-3 {
        fill: #7aad88;
      }

      .cls-4 {
        fill: #dd3b33;
      }

      .cls-5 {
        fill: #eee0c5;
      }

      .cls-6 {
        clip-path: url(#clippath-5);
      }

      .cls-7 {
        clip-path: url(#clippath-3);
      }

      .cls-8 {
        clip-path: url(#clippath-2);
      }

      .cls-9 {
        clip-path: url(#clippath);
      }
    </style>
    <clipPath id="clippath">
      <path class="cls-4" d="M886.39204,197.59941c115.92432,89.00986,96.75339,295.10062-32.0801,363.66274-24.04531,12.79653-168.38944,56.84352-193.15266,58.67879-108.69094,8.05241-189.36588-93.09967-220.48028-185.45701l-7.35277-83.39938c.25588-2.42163.96103-4.80744,1.30244-7.22655.73017-5.18438,6.26034-21.99718-5.24187-12.02812-49.54227,61.79524-53.01583,115.03622-41.77194,190.0849,19.48932,130.09439,122.98518,229.91883,259.76991,223.81929,165.3854-7.37646,385.20387-180.8642,425.92689-342.45593,52.64992-208.91107-48.36333-347.71188-266.6026-260.86967-7.34788,7.40955,68.52162,46.61872,79.68298,55.19094Z"/>
    </clipPath>
    <clipPath id="clippath-2">
      <path class="cls-4" d="M339.18306,625.03001c-5.65873-89.99436-39.53277-193.11294-6.26051-286.52965,22.74955-63.87268,58.08635-56.18613,103.61626-87.45351,74.02393-50.83304,138.03147-112.69101,236.19044-110.57585-10.64336-24.74494-66.14619-40.47694-90.7263-44.09447-52.49008-7.72342-106.60002,11.65797-155.34474,13.01884-25.16913.7002-144.41648-16.54631-157.17191-3.27346-27.16869,118.79183-82.71576,218.88994-65.17118,343.97132,9.9681,71.05908,62.08025,154.92229,134.86795,174.93678Z"/>
    </clipPath>
    <clipPath id="clippath-3">
      <path class="cls-4" d="M449.10905,773.16715c-21.73004-14.15929-66.71647-79.105-63.16048-25.68692,6.09888,91.56116,111.97665,181.55696,190.54387,215.37533,198.72927,85.53962,388.91494-82.45913,401.75848-282.22254l-145.87882,94.79564c-119.22135,48.02887-268.94178,72.24193-383.26306-2.2615Z"/>
    </clipPath>
    <clipPath id="clippath-5">
      <path class="cls-4" d="M1040.3331,703.89431c-4.46818,63.02946-23.67943,117.23885-52.49965,172.37977,235.0241-3.01116,359.02878-335.89524,181.34126-489.79625-27.26342-5.34362-35.98557,71.98575-44.17054,91.2199-21.43008,50.35936-76.91081,108.20169-88.65303,136.82048-4.88434,11.90556,5.53503,67.44841,3.98195,89.3761Z"/>
    </clipPath>
  </defs>
  <circle class="cls-3" cx="1004.4615" cy="1000" r="1000"/>
  <g>
    <path class="cls-1" d="M65.23798,796.03813c6.05895,16.6155,11.66264,32.1759,15.2425,46.4044,3.69321,13.59957,5.36875,29.42505,7.50057,46.2999,2.68299,22.79673,5.79641,48.58231,13.40815,74.53123,32.0443,105.69811,134.52954,186.58081,267.6414,210.5716,47.60768,8.58035,95.00252,9.36157,139.56918,2.5197,1.13054,13.46139,6.35805,25.721,14.80008,36.29805,42.94898,52.36706,100.21706,86.29448,165.98922,98.14861,72.97716,13.1527,150.7775-2.25187,220.71952-36.86013,12.05357,26.42578,42.47212,56.80888,104.58729,96.13766,72.85671,46.11619,155.33794,76.50333,259.94905,95.35743,48.23279,8.69301,97.65729,14.36584,145.82932,19.81491,3.50129.30735,6.94608.9282,10.44738,1.23555l7.63117.72995c1.25213.22567,2.56076.13783,3.50129.30735l125.83412,12.33078-15.68567-167.74912c-6.54672-110.8056-77.52435-267.8253-182.26606-372.07525,193.61977-1.32205,375.45298-132.82489,500.99443-237.28591l10.88283-11.94558-55.68336-116.03148-77.94854-98.84499c-2.70667-1.13521-5.41143-2.27008-8.11845-3.40338-62.63811-27.4582-131.3631-53.42783-206.21941-66.9192-16.59884-2.99161-33.3126-5.35655-50.45096-7.15063-36.84063-3.7305-136.33531-9.69762-192.80977,27.3379-17.73243-36.18113-42.31919-68.42246-73.36051-95.36111-9.20567-8.12512-20.8564-13.45991-33.07183-15.6615-9.08224-1.63689-17.45187-1.85058-25.41982-.70104,2.76999-67.4094-11.09688-126.8235-40.63055-172.89233-32.04218-50.07763-80.90964-82.16731-140.73275-92.94924-56.68992-10.21724-121.12062-.81121-191.81273,27.1939-9.047,3.54461-16.75368,8.62162-23.48884,15.49219-8.32597,8.52405-14.48636,19.3786-17.51582,30.79941-.94444-3.72888-2.14623-7.82586-3.77454-11.35232-24.82591-57.83257-103.99012-77.92093-136.87619-83.848l-6.57607-1.18521c-42.87942-6.11168-82.52193.32685-117.49659,5.98819-18.04105,3.21444-35.34467,5.91835-49.00657,6.36536-7.11751.01199-21.06774-1.53316-37.01014-2.78997-94.48851-8.62155-137.41828-10.86191-168.02548,20.81102-8.6979,8.78071-14.60128,20.00527-17.48605,32.41929-7.43655,32.2923-17.26591,63.50399-27.3778,96.28322-26.20267,82.58999-52.96969,168.31126-38.52351,271.16332,1.87056,12.94738,4.68131,26.06619,8.48719,39.04065-3.84188,1.57146-7.68186,3.14326-11.26483,5.08508-145.30596,79.55479-99.16784,207.5206-74.38185,276.33973Z"/>
    <g>
      <path class="cls-4" d="M886.39204,197.59941c115.92432,89.00986,96.75339,295.10062-32.0801,363.66274-24.04531,12.79653-168.38944,56.84352-193.15266,58.67879-108.69094,8.05241-189.36588-93.09967-220.48028-185.45701l-7.35277-83.39938c.25588-2.42163.96103-4.80744,1.30244-7.22655.73017-5.18438,6.26034-21.99718-5.24187-12.02812-49.54227,61.79524-53.01583,115.03622-41.77194,190.0849,19.48932,130.09439,122.98518,229.91883,259.76991,223.81929,165.3854-7.37646,385.20387-180.8642,425.92689-342.45593,52.64992-208.91107-48.36333-347.71188-266.6026-260.86967-7.34788,7.40955,68.52162,46.61872,79.68298,55.19094Z"/>
      <g class="cls-9">
        <path class="cls-4" d="M830.71214,123.06846c-.81536-6.01548-3.34904-12.13401-8.26528-15.98424-4.73015-3.70438-11.51192-6.89349-17.67347-5.63017-4.97484,1.01969-9.94969,2.03938-14.92415,3.05914-6.31728,1.29506-11.63427,3.18154-15.98401,8.26513-3.85371,4.50409-6.43982,11.69967-5.63043,17.67382.81536,6.01548,3.34901,12.1342,8.26528,15.98424,4.73012,3.70457,11.51192,6.89349,17.67347,5.63017,4.97484-1.01969,9.94969-2.03938,14.92415-3.05914,6.31724-1.29487,11.63427-3.18154,15.98398-8.26493,3.85371-4.50409,6.43985-11.69986,5.63047-17.67401Z"/>
      </g>
    </g>
    <path class="cls-4" d="M160.99405,929.03411c49.38032,164.29715,313.97245,217.53281,444.79362,120.87457-49.7984-25.78297-104.37193-38.89477-150.97125-72.08696-54.50179-38.81894-109.06831-111.867-129.19364-175.77996-6.94987-22.07583-11.91501-90.03847-17.34232-98.6284-5.66005-8.95647-66.16516-42.60202-86.16382-63.38606-21.80764-22.66208-34.96901-52.01819-55.84793-75.39638-117.08068,64.17991-48.47354,158.05599-25.53718,245.71929,10.07359,38.50938,8.79399,80.53145,20.26252,118.6839Z"/>
    <g>
      <path class="cls-4" d="M339.18306,625.03001c-5.65873-89.99436-39.53277-193.11294-6.26051-286.52965,22.74955-63.87268,58.08635-56.18613,103.61626-87.45351,74.02393-50.83304,138.03147-112.69101,236.19044-110.57585-10.64336-24.74494-66.14619-40.47694-90.7263-44.09447-52.49008-7.72342-106.60002,11.65797-155.34474,13.01884-25.16913.7002-144.41648-16.54631-157.17191-3.27346-27.16869,118.79183-82.71576,218.88994-65.17118,343.97132,9.9681,71.05908,62.08025,154.92229,134.86795,174.93678Z"/>
      <g class="cls-8">
        <path class="cls-4" d="M353.58912,284.08908c3.5738-41.73375-8.99327-87.01351-42.59863-114.09591-4.38711-3.53577-10.0791,3.11444-5.68747,6.6536,28.03074,22.59008,40.32279,59.03593,40.21028,94.2004-.13955,43.7513-19.00642,85.69808-39.53124,123.4177-16.56249,30.43792-37.14817,60.86662-66.6096,80.15475-15.22907,9.97032-32.5791,16.14261-50.77667,17.4001-20.3633,1.40717-40.85191-3.0217-59.58564-10.87079-44.01677-18.44236-76.7167-54.90265-107.85727-89.73186-3.71138-4.15078-10.93993.79647-7.18779,4.99269,29.18449,32.64168,59.29042,66.39544,98.76031,86.79241,36.68717,18.9587,80.8519,25.01563,118.76192,5.98719,33.21274-16.67086,56.83743-47.11179,75.34482-78.49356,22.62314-38.36048,42.91171-81.50647,46.75699-126.40672Z"/>
      </g>
    </g>
    <g>
      <path class="cls-4" d="M449.10905,773.16715c-21.73004-14.15929-66.71647-79.105-63.16048-25.68692,6.09888,91.56116,111.97665,181.55696,190.54387,215.37533,198.72927,85.53962,388.91494-82.45913,401.75848-282.22254l-145.87882,94.79564c-119.22135,48.02887-268.94178,72.24193-383.26306-2.2615Z"/>
      <g class="cls-7">
        <path class="cls-4" d="M395.91544,714.41238l-3.56118-12.13968c-1.62054-5.52545-7.03414-10.90023-12.09274-13.32541-5.34385-2.56186-12.957-3.21218-18.52741-.89432-5.5986,2.32975-10.8816,6.34925-13.32525,12.09297-2.60842,6.13008-2.77655,12.11141-.89455,18.52756l3.5608,12.13961c1.62131,5.52559,7.03452,10.9003,12.09313,13.32548,5.34385,2.56186,12.95742,3.21206,18.52744.89413,5.5986-2.32975,10.88194-6.34899,13.32563-12.0929,2.60804-6.13015,2.77613-12.11129.89413-18.52744Z"/>
      </g>
    </g>
    <path class="cls-4" d="M1048.64419,932.22101c-32.88374,24.70742-81.24671,7.06147-110.56761,13.5869-10.88352,2.42151-82.41148,62.23405-111.47864,76.14182-41.58686,19.89724-85.5661,23.97856-122.56051,41.9864-16.90423,8.22804-104.36078,63.8542-118.33807,75.35481-5.37854,4.42614-14.32431,7.31942-13.79811,16.17176,140.08048,171.57487,428.82526,32.48948,475.37827-152.49255,3.18138-12.64241,15.80775-67.27763,1.36467-70.74915Z"/>
    <g>
      <path class="cls-4" d="M1040.3331,703.89431c-4.46818,63.02946-23.67943,117.23885-52.49965,172.37977,235.0241-3.01116,359.02878-335.89524,181.34126-489.79625-27.26342-5.34362-35.98557,71.98575-44.17054,91.2199-21.43008,50.35936-76.91081,108.20169-88.65303,136.82048-4.88434,11.90556,5.53503,67.44841,3.98195,89.3761Z"/>
      <g class="cls-6">
        <path class="cls-4" d="M1177.86198,353.56407c-.3988-4.18062-1.78981-7.99867-4.17301-11.45433-3.35635-6.33312-6.7127-12.66623-10.06904-18.99935-2.66352-5.02578-10.06359-8.91727-15.37032-9.8737-5.76132-1.03837-13.10445.28023-17.8503,3.88634-4.91611,3.73608-9.02638,9.06356-9.8737,15.37032-.09565,2.13177-.19095,4.26381-.28625,6.39584.39883,4.18043,1.78981,7.99867,4.17262,11.45426,3.35635,6.33312,6.71308,12.6663,10.06943,18.99941,2.6639,5.02585,10.06359,8.91727,15.37032,9.8737,5.76132,1.03837,13.10484-.28016,17.84991-3.88641,4.9165-3.73601,9.02638-9.06356,9.87408-15.37025.0953-2.13203.19057-4.26388.28625-6.39584Z"/>
      </g>
    </g>
    <path class="cls-3" d="M1303.8164,723.76812l-58.65038,131.77217c208.88167,77.46615,427.27064-72.85925,580.96437-201.1281-176.49776,1.63336-349.92924,36.60947-522.31399,69.35593Z"/>
    <path class="cls-3" d="M1037.40272,1161.61962c-12.15521,15.50054-65.27625,60.26216-67.59544,67.07115-4.69679,13.77513,64.06394,61.09473,78.5023,70.23392,122.36646,77.45385,255.32736,91.34222,396.10536,107.27575-92.15685-132.3723-223.25104-234.21509-355.59064-325.08073-19.44705,24.65062-32.03086,55.7682-51.42159,80.4999Z"/>
    <path class="cls-4" d="M510.86429,331.49098c-16.9073,82.28793,43.27557,221.89194,142.07644,208.30382-1.06501-12.73276-20.99523-13.25085-32.54038-24.69103-77.68429-76.99103-38.52682-195.47508,67.84477-211.10155,86.86605-12.76407,131.06109,64.683,97.95387,141.06971-10.70132,24.69205-35.61905,34.69592-44.57104,58.53171,62.72593,9.74235,137.84833-46.58918,146.12338-110.48884,28.42315-219.49843-339.86532-241.79962-376.88703-61.62382Z"/>
    <path class="cls-3" d="M1172.10098,908.91287c-75.55535-13.46044-47.10068,52.63729-57.93338,100.9105,136.70871,85.86204,258.04331,195.76956,367.4724,313.62591-8.92279-150.15038-153.34187-386.71169-309.53902-414.53641Z"/>
    <path class="cls-3" d="M1768.1573,584.40234c11.11095-1.20254,11.8413,6.40973,13.22368-12.69834-100.78766-46.71179-193.96367-88.77142-306.79127-100.39401-28.10471-2.89422-151.67523-3.5962-157.68921,27.50598l7.19958,147.20008c146.78836-31.19033,295.02372-45.4819,444.05722-61.6137Z"/>
  </g>
  <g>
    <g>
      <path class="cls-5" d="M914.9578,968.02931c-.05602-.07655-.10006-.16197-.15653-.23666-.28007-.37487-.3112-.39229-.52914-.67537-.44651-.56285-.92519-1.08244-1.37296-1.62398.21614.37108,1.00332,1.37467,2.05864,2.53601Z"/>
      <path class="cls-2" d="M556.43244,1327.71165c-173.95388,50.55155-312.63919,194.59514-340.92695,379.53027-8.05035,52.63187-8.19835,107.96643,17.33192,156.21177,24.6236,46.53063,69.23689,77.99343,117.64158,96.01551,93.64862,34.86879,199.81119,14.90376,284.75752-33.81184,84.57154-48.50037,146.91905-125.91444,196.15265-209.27487,57.78455,65.08587,150.68861,93.03583,239.37017,72.51024,97.41296-22.54604,169.10553-97.32238,206.69498-186.74062,17.09168,13.44502,36.78856,23.83807,57.40165,30.39202,51.10122,16.24824,111.41037,10.43723,161.7607-6.16021,50.0462-16.4947,94.28252-46.08987,124.93596-89.25347,16.27109-22.9121,26.38511-49.11558,31.39324-76.26303,68.2443,47.67919,163.13995,49.62526,233.86758-1.92361,93.20165-67.93126,122.82013-189.9643,87.19861-297.58503-13.02569-39.35597-36.33007-77.24555-69.62876-99.54108,0,0-50.73489-29.68766-123.73379-30.16278s-1224.21706,296.05674-1224.21706,296.05674Z"/>
      <path class="cls-5" d="M582.12508,1856.82472c-77.07293,41.51555-205.28062,58.3098-265.75116-21.50885-32.40467-42.77303-20.41827-106.29468-7.52568-153.98244,13.53262-50.05529,37.34502-97.92109,69.5203-138.63631,63.03813-79.76337,157.02156-132.46299,257.91184-144.87691,2.38289-.29371,4.52023-.91851,6.68884-1.50227,14.36013,7.12279,29.21477,13.67627,44.90179,19.07262,20.59211,7.08342,41.79877,13.92751,63.2802,20.32168l-145.46747,137.30193c-3.1701,2.99092-6.65691,6.15228-10.27568,9.39545-22.23482-4.94509-25.64657-5.19788-44.05097-3.3165-3.0007.30675-5.13529.48485-13.3363,3.61542-.93524.28105-1.87454.34492-2.80371.71392-25.72286,10.22296-48.0226,28.05112-60.15047,53.51015-11.27467,23.66822-15.23618,50.33576-8.56527,75.91598.40627,4.43663,1.17406,8.92208,1.92004,13.08579,1.34826,7.5141,4.62479,14.44677,8.04319,21.24894,3.35468,6.67657,8.41608,12.66465,13.57645,17.99684,5.41477,5.59467,12.00639,10.40902,18.81451,14.15784,1.2805.70523,2.71418,1.23357,4.04992,1.8815,3.90509,3.00774,7.85064,6.04303,12.33454,8.08732.65289.29673,1.31351.5698,1.98011.8345,4.04785,1.60781,8.08437,3.33471,12.21481,4.73271,1.3578.46071,2.74101.83327,4.14141,1.13534,3.18.90294,6.34173,1.21968,9.49677,1.18495,2.9495.76814,5.86902,1.71568,8.86159,2.17003,42.52871,6.44243,84.87407-11.00972,109.348-46.14173,11.62065-5.4395,22.91262-11.01415,33.15236-16.1987,5.65457-2.86287,11.26542-5.83662,16.88709-8.78219-37.27193,51.91562-82.05403,97.80241-139.19705,128.58299Z"/>
      <path class="cls-5" d="M1057.63778,1703.4665c-62.33201,17.89043-133.96553-2.51003-170.86835-55.04101,10.28507-3.69356,20.39029-7.81029,31.01485-10.7116,13.74792-3.75743,27.70967-6.35229,41.74052-8.22277,9.38285,14.12475,21.93031,26.53081,37.16611,34.26997,15.30779,7.77439,32.96663,12.43485,50.24009,11.40396,29.1349-1.74195,55.64168-16.80126,73.1806-39.74627,5.08379-1.08576,10.19826-2.46671,15.37841-4.41537,17.3477-6.52765,32.40043-17.50816,47.10322-29.01226-27.57261,47.52896-69.18915,85.469-124.95544,101.47535Z"/>
      <path class="cls-5" d="M1549.63501,1490.74129c-18.73452,26.05171-47.85773,43.35445-77.61064,53.18658-33.8561,11.18445-69.3491,16.88543-105.98663,8.04465-9.22687-2.22763-15.86686-4.55381-23.69521-8.85007-3.34155-1.83657-6.6929-3.92317-9.84722-6.13273-.6753-.8014-6.26883-5.52574-6.25299-5.51009-.60777-.57858-4.22031-4.39942-5.4892-5.57154,27.56191-8.88237,55.7627-14.33075,84.41266-17.50182,1.55927,1.17412,2.96573,2.50752,4.71144,3.48928,2.08076,1.41327,4.27335,2.62582,6.59694,3.59121,5.48332,2.28202,11.11327,4.8494,16.95871,6.17805,5.96231,1.35714,12.20844,1.83222,18.27265,2.16665,2.40298.13178,4.81585.0537,7.20625-.22246,5.83044-.6738,11.76675-1.45937,17.4446-3.03906,5.57845-1.55086,11.08074-4.32113,16.19156-6.71907,2.17023-1.01771,4.25429-2.19794,6.20743-3.5909,4.8817-3.48169,9.84621-7.21441,14.0015-11.60233,2.83224-2.71755,4.85647-5.8856,6.51318-9.25527,4.01798-1.74455,8.08951-2.96701,12.06351-5.18414,12.15647-6.78292,22.97334-15.42342,33.63517-24.28253-3.69238,10.6642-8.46795,21.25695-15.3337,30.80559Z"/>
      <path class="cls-5" d="M1418.4107,1206.67695c150.29997,7.89473,195.87394,6.42632,241.81782-3.91443,8.66096-1.94918,17.24195-4.02988,25.8501-6.06072,22.6303,16.5483,45.26155,33.10076,67.89185,49.64906,11.18702,8.18297,32.39637,18.48285,40.82462,29.985,1.15175,1.57202,1.74252,2.64762,2.46737,3.84239-.50211,3.14013-1.36783,6.19162-2.27066,9.23407-.21921.44774-.49972.8648-.7259,1.30887-3.6841,1.10857-8.77505,2.0786-16.28737,3.88719-54.14939,13.0338-109.85332,14.89283-162.6081,34.50078-24.14954,8.9772-47.68464,20.14227-68.61222,35.27627-21.48419,15.53879-40.6787,39.285-65.73774,49.21971-26.85363,10.64502-61.8509,5.57275-90.35692,9.20147-28.49123,3.62446-56.90793,9.13616-84.42815,17.38799-53.21063,15.95522-104.80299,40.76785-149.78046,73.41146-21.6319,15.70129-42.06497,39.81184-70.47734,39.35574-31.17052-.5015-61.8201-12.13764-93.66405-12.17438-122.47549-.14147-227.33142,69.47311-332.57564,122.72559-13.72042,6.94215-27.57902,13.93512-41.83212,19.75687,10.49831-9.97011,21.61608-23.99708,27.78356-29.8186,12.7665-12.05079,25.53256-24.09973,38.29675-36.14912,55.82787-52.69283,111.65388-105.38612,167.47989-158.07941,88.64085-70.88854,100.87647-90.82549,149.35211-100.63555l417.5926-151.91026Z"/>
      <path class="cls-5" d="M1874.74295,1350.83978c-36.6273,55.69692-117.25651,79.70468-170.45097,43.34937,4.17655-.84702,8.35878-1.83023,12.5209-2.61002,18.47534-3.46192,40.49347-6.22727,62.56839-10.44298,3.4098,2.0242,7.01168,3.71197,10.98753,4.49446,3.82405.40547,7.65042.80955,11.47447,1.21502,7.5631-.25929,14.58428-2.34287,21.0617-6.2512,8.96176-4.51339,17.05744-11.00478,24.42378-17.72114,3.08547-2.81305,5.84019-6.03494,8.52703-9.3009,20.43082-14.0798,34.59385-34.45552,35.87876-65.50189.47357-11.47243-1.69487-21.66874-5.42715-31.05328-.0034-.02638.00108-.0528-.00232-.07918-2.81138-21.41812-8.82645-42.17463-21.33142-60.12449-6.55703-9.41473-15.15759-16.66256-26.56669-19.44378-9.14954-2.2304-20.60978-1.0206-29.35264,3.46557-7.70132-5.61552-15.37967-11.26081-23.08009-16.88003,11.69063-5.5895,23.18496-11.72016,34.23093-19.12362,7.48469-5.01693,14.12353-10.85326,21.07534-16.39317,38.05638,3.92337,54.24457,60.8464,59.34393,93.09924,7.10844,44.96529-.77109,91.1157-25.88148,129.30202Z"/>
    </g>
    <path class="cls-5" d="M1826.39593,1048.22352l1.66941-36.11263c1.74998-37.88637,8.16919-75.53069,14.37707-111.93951l1.65223-9.69527c7.88806-46.52921,15.45054-96.56186,17.3477-147.16057,3.66707-97.71106-12.57142-195.13274-29.51609-286.54273l-.61808-3.33002c-8.63102-46.58404-17.55888-94.75214-28.32793-141.5297-9.53433-41.40879-20.43173-85.09842-39.42662-124.09169-21.77219-44.69171-50.99272-71.89673-89.32988-83.17251-5.23579-1.54246-10.76404-2.8601-16.43228-3.91806-40.55595-7.56962-82.56933-1.35155-110.68417,5.19657l-14.3437,3.56906-5.9646-10.97241c-16.12209-29.65129-49.42256-51.77299-89.08164-59.17521-1.28633-.24009-2.56935-.4635-3.86148-.67256-27.0733-4.34019-56.09578-4.20775-83.42626-3.41909-29.49837.84969-53.47522,6.36531-73.29926,16.85982-11.02391,5.83616-20.64708,13.53628-28.60169,22.887l-9.47121,11.13583-12.02733-8.30807c-3.17176-2.1913-6.96842-3.74454-10.97949-4.49319-2.0901-.39011-4.24401-.56733-6.40066-.52347-35.89755.70545-71.39993,25.78246-90.4472,63.88624-15.58747,31.18979-17.46044,67.38647-17.99357,98.86511l-.24717,14.68477-14.6395,1.15344c-10.80539.85425-20.28058,1.74803-28.97631,2.7327-20.50023,2.31399-21.21635,21.42974-21.15153,25.23777l.02045,1.27555-.17757,1.26107c-6.47238,45.8268-8.27562,92.03372-5.36151,137.33877.3597,5.60046,2.09118,10.16595,5.14546,13.57173l.91871,1.02251.73168,1.16423c3.28694,5.22192,7.92525,8.42558,13.78745,9.51973,2.19096.40893,4.58219.52768,7.11107.34776,3.5196-.24871,7.03982-.44913,10.55849-.64984l21.42442-1.22624-2.57974,19.38772c-4.58572,34.45394-10.11614,65.77061-16.90995,95.74352-20.69113,91.32856-92.32574,157.75303-157.84756,212.84839-45.17925,37.98571-93.69557,72.50643-140.61544,105.88961-24.16736,17.19542-49.15688,34.97602-73.28792,52.94896-60.3866,44.97755-132.95365,108.54321-158.3228,201.66414-18.80166,69.01483-1.68415,158.60408,67.40609,196.2983l18.73224,10.22107s78.02684,27.36911,221.44281,41.33148c0,0,280.66675-8.77846,530.20194-179.81542l260.02211-241.61688-13.46285,201.67525,195.7265-81.68633,5.53718-29.66669Z"/>
    <path class="cls-2" d="M1860.81111,1087.76785c.71079-49.79568,10.98534-99.05999,20.40814-147.7822,9.9704-51.54525,18.74794-102.86359,21.9332-155.34073,6.17505-101.75648-7.88321-203.24347-24.07426-303.46305-8.2344-50.97721-16.42178-102.00177-26.84348-152.58775-9.34098-45.3411-19.95949-91.84382-39.34254-134.0872-20.93656-45.62781-52.32882-82.31012-101.41816-97.99103-44.24561-14.13422-96.29101-11.56387-141.25834-2.17866-.8613.17974-1.71555.39801-2.57583.58891-20.31473-39.51557-62.54689-65.30087-107.50078-73.57951-29.36929-5.40953-60.30619-6.03194-90.13354-5.86237-29.14981.16665-58.10444,4.48231-84.35206,17.6093-14.26338,7.13295-25.91034,16.35368-35.45224,27.06025-7.79091-5.65328-17.56764-8.83451-27.86553-8.87056-47.71701-.16677-89.2941,32.62666-110.90558,73.47078-17.92623,33.88635-21.59049,72.05212-23.10871,109.95856-10.30011.5739-20.5937,1.26874-30.86942,2.19046-25.59013,2.29319-37.92837,22.47616-38.0518,42.53239-7.98195,48.40525-11.13704,97.62197-9.12074,146.63834.42586,10.33543,3.86737,18.47387,9.0851,24.5676,6.92869,11.6002,19.30223,19.8397,36.85796,19.00357,4.26607-.20334,8.52933-.3374,12.79302-.48146-5.18442,33.08847-11.58497,65.88284-19.65288,98.01526-22.30078,88.84339-95.0056,153.87516-164.05941,209.26624-72.21802,57.92554-150.87847,106.51462-226.27038,160.00291-77.7953,55.19291-148.54899,121.60989-176.50237,215.59135-26.22609,88.18059-.04124,196.16189,90.70738,234.56057,94.80548,40.11554,204.34839,34.76879,305.09588,32.35721,87.31642-2.09064,174.82976-7.97741,259.88855-29.05315,48.07961-11.91294,94.44111-29.78598,137.87828-53.64846,47.52023-26.10654,89.43162-60.74245,130.53229-95.78239,6.26041-5.33753,12.47357-10.73049,18.71353-16.09086,60.15725,7.79392,120.44366,14.49525,180.85881,19.97003.11236.0102.22531.00958.33784.01897,7.40836,1.54647,15.09546,1.57806,21.993-.10168,53.07528-12.92576,106.15361-25.85004,159.23194-38.77432,26.35823-6.41859,52.67441-11.90221,66.80918-37.91103,12.89019-23.71402,5.86445-54.11608,6.23396-79.81628ZM1427.93365,534.92408c.74423-2.23772,1.4395-4.4908,2.16634-6.73387,65.15241,24.2077,127.82054,55.50747,186.7163,93.51512,19.14624,12.35556,47.13137.72453,56.84775-18.13157.85218-1.65508,1.54312-3.31213,2.15666-4.96949,28.78685-45.48119,42.13809-98.75078,41.24818-152.4502-.23849-14.36595-9.20426-26.84745-21.30855-33.7833-1.15681-.86339-2.3546-1.71605-3.60204-2.56486-9.80099-6.66276-19.60181-13.32633-29.40281-19.98909-1.8824-1.27979-4.12807-2.22608-6.53577-2.95477-52.57111-34.65028-108.68639-63.71577-167.16154-86.88717,4.23191-15.55511,8.90719-30.90484,14.46557-45.75446,13.64851-36.45717,34.27519-61.83667,68.79795-73.39118,32.93185-11.02078,80.80344-15.24843,116.11236-3.503,30.58162,10.17359,44.9126,41.08501,55.76063,72.11133,14.93602,42.71423,24.87573,87.27553,32.97463,131.73443,15.18611,83.35321,29.94165,167.63111,37.80641,252.19-30.22133,39.98919-64.67368,77.78533-103.90628,108.89793-18.04752,14.31236-37.28834,28.32617-59.59605,33.942-21.60349,5.43836-44.7342-2.91122-65.5034-13.21419-18.90771-9.37953-36.48176-18.40736-45.96561-37.94915-11.61622-23.94317-18.08294-49.3736-35.06295-70.59656-25.18032-31.47114-60.29684-53.16159-98.94503-61.29385,8.00701-18.99901,15.34019-38.38835,21.93725-58.2241ZM1302.06586,134.19666c7.29136-17.18466,18.03551-26.16452,33.78879-30.77009,15.14879-4.42982,38.47574-3.94146,57.1243-3.47471,24.29004.60875,51.08166.58937,73.63895,10.63759,8.83616,3.93701,15.09632,7.91225,20.83361,14.39328,1.2785,1.44472,2.39915,2.90333,3.36959,4.38755-12.38484,9.29429-23.54375,20.21082-32.87123,32.85695-24.25666,32.89029-37.28614,71.34869-47.97834,110.37445-39.16365-11.63224-79.08718-20.71264-119.42548-27.22491.80677-14.41179,1.46207-28.83193,1.94654-43.26448.7498-22.33394,1.25624-48.30838,9.57326-67.91564ZM1262.513,482.74269c29.55798,5.17733,58.84725,11.742,87.76368,19.68469-9.48806,29.60962-20.4468,58.7107-33.87177,86.92932-5.9827,12.57958-12.44805,24.86045-19.263,36.91444-17.68001-15.67042-36.12657-30.28403-56.11629-42.44852,8.13006-33.49844,15.26243-67.20875,21.48738-101.07993ZM1192.47816,650.3327c29.24788,12.21218,37.38815,24.40778,57.83627,47.21682-9.78002,13.00376-20.01664,25.67305-30.63229,38.03937-33.37966-32.57216-75.25961-55.10573-120.17341-66.49198,5.422-9.58248,11.35982-22.27676,15.56471-32.37245,25.54288-6.46491,59.92427,6.31015,77.40472,13.60825ZM1161.51006,553.69763c-7.49143-1.05628-15.01432-1.64348-22.52117-1.6994,1.60474-8.06459,3.11037-16.13828,4.54827-24.19425,3.42013-19.18319,6.51755-38.42511,9.32066-57.70883,8.6823.48711,17.34872,1.10558,26.00383,1.83365-5.17375,27.37892-10.95483,54.64336-17.35158,81.76882ZM1468.99485,383.24949c53.46105,22.00979,104.91644,49.34336,153.47854,81.8179,2.2214,1.48508,4.57974,2.59992,7.01288,3.43164.88656.60354,1.77489,1.20662,2.66162,1.80936-1.62048,18.77764-6.05218,36.81568-12.96964,54.06396-52.79493-30.91034-108.36118-56.86701-165.76817-77.73123l-1.4516-.59989c-85.05469-35.30609-176.10038-46.57575-176.10038-46.57575-34.07258-7.87292-83.26936-10.97251-83.26936-10.97251-9.82509-.88952-106.25193-3.63859-116.1009-4.24689.70541-7.18479,1.37306-14.37416,1.99259-21.56694,1.33206-15.46639,2.50593-30.94927,3.52366-46.44231,10.67761.36779,43.70925-7.54601,119.72885,1.72529,0,0,37.10431,3.10554,82.32277,12.06864,0,0,105.7813,15.95621,184.43239,52.98068l.50676.23804ZM1190.84061,156.00107c7.79914-10.53909,15.10641-16.39362,24.11706-18.93572-3.60401,17.84195-5.37082,36.26714-6.1378,54.22267-.63252,14.8156-1.3376,29.59991-2.1412,44.36431-11.50368-.81882-23.01952-1.44403-34.54499-1.83974.38009-8.06244.95095-16.10321,1.96198-24.08324,2.30991-18.23752,7.76693-41.5979,16.74496-53.72828ZM1045.82694,741.2264c44.23553,2.40876,82.85696,24.71132,115.77971,55.63971-.19419.18641-.38262.37741-.57681.56383-10.69062,10.26838-21.64649,20.30911-32.78928,30.17407-32.34761-26.44086-69.65005-45.63658-109.36285-56.59645,8.46543-8.43444,19.0065-20.91835,26.94924-29.78117ZM946.17486,834.71115c45.6117-1.29385,78.18246,21.88179,115.27497,47.89266-11.0736,8.48947-29.26681,22.67011-40.598,30.81568-25.3837-23.57607-58.57952-37.79031-90.50717-46.05083-6.30132-1.62982-11.16742-2.19109-23.09996-3.30822,7.75205-5.94353,31.19225-23.22512,38.93015-29.34929ZM817.99581,929.36267c31.66791-1.17691,46.08334,1.18319,82.80403,17.56126,15.24491,6.79934,30.57549,12.08101,39.32559,19.02417l.01095.00399c-8.55128,5.36512-8.23793,5.12466-16.85445,10.31186-38.36906,23.09729-80.62074,43.74658-126.35438,43.88484-26.70372.08168-53.87973-8.25715-73.42217-26.06952,27.70495-19.38887,66.48403-45.75917,94.49043-64.71659ZM1660.39958,1149.99958c3.99864-54.02,10.45182-107.81335,19.09645-161.33024,7.01821-43.44712-41.86599-64.57771-72.52611-37.03661-72.54784,65.16588-145.09704,130.33821-218.76844,194.23515-63.16307,54.78152-126.98997,111.00352-205.8934,141.72318-73.75605,28.71498-152.17705,39.30502-230.74996,44.03001-41.62477,2.50343-83.33418,3.39437-125.023,3.97981-46.79586.65623-93.7943.85133-140.19462-6.04476-34.54324-5.13308-83.09034-11.28673-107.65053-39.52295-19.39038-22.29067-24.74276-59.96407-20.62269-88.90368,9.10134-63.88529,49.20374-114.37655,97.26134-155.64626,52.23987,58.05075,140.26377,69.41873,213.8782,48.07383,42.49435-12.32177,82.02085-34.80644,119.14743-58.4164,37.86971-24.08402,74.93936-49.54984,110.88954-76.41594,70.73321-52.85997,138.13813-111.71028,194.4943-179.93295,27.40527-33.17666,51.42003-68.05188,72.30352-104.63333,20.09972-1.32987,36.65247,2.41087,55.23771,15.17531,14.57631,10.01282,24.51385,26.54592,32.52553,47.00092,11.54642,29.47777,24.90957,56.11108,50.63636,75.67681,26.13756,19.87791,57.73931,35.34424,89.24847,44.40822,61.52311,17.69592,120.24391-8.30311,167.61813-46.84068,20.6799-16.82416,40.29927-34.74486,58.9045-53.63866-.58086,26.50351-2.49659,52.96491-6.17584,79.30062-7.59924,54.37364-20.52687,107.82257-28.84845,162.07603-4.37544,28.53724-7.38668,57.36105-8.38243,86.22555-.43584,12.69911-.09841,25.30855.43047,37.96842-38.92599,9.57945-77.88014,19.03678-116.83649,28.48859Z"/>
  </g>
  <path class="cls-2" d="M1392.69408,735.71924c-55.99496-13.38995-76.89714,73.61063-20.80955,87.02273,55.99496,13.38995,76.89735-73.61058,20.80955-87.02273Z"/>
  <path class="cls-2" d="M1298.65942,846.25666c-55.99496-13.38995-76.89714,73.61063-20.80955,87.02273,55.99496,13.38995,76.89735-73.61058,20.80955-87.02273Z"/>
  <path class="cls-2" d="M1222.55254,920.05626c-50.68399-12.11995-69.60385,66.62882-18.83582,78.76886,50.68399,12.11995,69.60385-66.62882,18.83582-78.76886Z"/>
  <path class="cls-2" d="M1122.78398,998.84016c-50.68399-12.11995-69.60366,66.62886-18.83582,78.76886,50.68399,12.11995,69.60385-66.62882,18.83582-78.76886Z"/>
</svg>