<?xml version="1.0" encoding="UTF-8"?>
<svg id="Layer_1" data-name="Layer 1" xmlns="http://www.w3.org/2000/svg" viewBox="0 0 199.66 229.67">
  <defs>
    <style>
      .cls-1 {
        fill: #fff;
      }
    </style>
  </defs>
  <polygon class="cls-1" points="76.88 12.71 35.15 36.93 35.15 168.89 163.95 172 163.95 125.78 76.88 12.71"/>
  <g>
    <path d="M0,57.12l43.83-25.18c-.45,2.36.46,5.01.47,7.16.14,20.77-.15,41.7-.02,62.5.08,12.7-1.83,29.89,2.81,41.47,5.85,14.59,19.94,24.2,35.56,25.2l69.26-.21c.98-.41,1.78-1.01,1.74-2.17-.79-7.57.98-17.02,0-24.35-.28-2.08-1.87-2.21-3.69-2.38l-67.25-.02c-5.38-.94-9.17-5.19-9.82-10.58l.42-113.79L98.65.16l2.05-.16,98.2,56.66.55.85.21,112.71-.43,2.07-99.84,57.38L0,172.16V57.12Z"/>
    <path d="M55.99,25v106.14c0,9.95,13.62,24.96,23.65,24.96h69.22v6.95h-68.79c-14.98,0-32.11-19.94-31.05-34.93V29.97c.29-2.17,4.96-4.2,6.96-4.97Z"/>
    <path d="M148.86,151.33h-66.62c-9.35,0-20.17-11-21-20.23l.24-109.61,6.23-3.43v110.48c0,7.33,7.02,14.89,14.22,15.73l65.44.09,1.5.67v6.29Z"/>
  </g>
</svg>